# xmcd CD database file
# Generated: Mon Feb 24 21:10:54 2003 by KSCD
# 
# Track frame offsets:
#       150
#       10187
#       21459
#       32486
#       44683
#       56932
#       68064
#       82723
#       99682
#       112104
#       126086
#       139713
#       153610
#       168812
#       182134
#       195981
#       209333
#       225010
#       238887
#       250377
#       261956
#       273426
#       283390
#       293562
#       303367
#       315141
#
# Disc length: 4375 seconds
#
# Revision: 2
# Processed by: cddbd v1.4PL0 Copyright (c) Steve Scherf et al.
# Submitted via: Kscd 1.3.0
#
DISCID=7011151a
DTITLE=JOHN LEE HOOKER - Boogie Man - Boogie Chillun
DYEAR=1900
DGENRE=
TTITLE0=Dimples
TTITLE1=Good Rockin' Mama
TTITLE2=No Shoes
TTITLE3=Whiskey And Wimmen
TTITLE4=San Francisco Blues
TTITLE5=Baby, Please Don't Go
TTITLE6=Sugar Mama
TTITLE7=The Journey
TTITLE8=Walkin' The Boogie
TTITLE9=Worried Life Blues
TTITLE10=Apologize
TTITLE11=Louise
TTITLE12=Ramblin' By Myself
TTITLE13=Union Station Blues
TTITLE14=Bluebird
TTITLE15=Down At The Landing
TTITLE16=Hey Baby
TTITLE17=I Don't Want Your Money
TTITLE18=Hard Hearted Woman
TTITLE19=Will The Circle Be Unbroken
TTITLE20=Boom Boom
TTITLE21=Run On
TTITLE22=I Wanna Walk
TTITLE23=Onions
TTITLE24=Boogie Chillun
TTITLE25=I'm Goin' Upstairs
EXTD=
EXTT0=
EXTT1=
EXTT2=
EXTT3=
EXTT4=
EXTT5=
EXTT6=
EXTT7=
EXTT8=
EXTT9=
EXTT10=
EXTT11=
EXTT12=
EXTT13=
EXTT14=
EXTT15=
EXTT16=
EXTT17=
EXTT18=
EXTT19=
EXTT20=
EXTT21=
EXTT22=
EXTT23=
EXTT24=
EXTT25=
PLAYORDER=
